<?xml version="1.0" encoding="utf-8"?>
<!-- Generator: Adobe Illustrator 24.1.3, SVG Export Plug-In . SVG Version: 6.00 Build 0)  -->
<svg version="1.1" id="Layer_1" xmlns="http://www.w3.org/2000/svg" xmlns:xlink="http://www.w3.org/1999/xlink" x="0px" y="0px"
	 viewBox="0 0 26.08 22.77" enable-background="new 0 0 26.08 22.77" xml:space="preserve">
<g>
	<path d="M8.83,15.56h13.7c0.34,0,0.64-0.22,0.73-0.55l3.03-10.62c0.07-0.23,0.02-0.47-0.12-0.67c-0.14-0.19-0.37-0.3-0.61-0.3H7.08
		L6.53,0.99C6.46,0.64,6.15,0.39,5.79,0.39h-4.6c-0.42,0-0.76,0.34-0.76,0.76c0,0.42,0.34,0.76,0.76,0.76h3.99l2.74,12.33
		c-0.81,0.35-1.37,1.15-1.37,2.09c0,1.25,1.02,2.28,2.28,2.28h13.7c0.42,0,0.76-0.34,0.76-0.76c0-0.42-0.34-0.76-0.76-0.76H8.83
		c-0.42,0-0.76-0.34-0.76-0.76S8.41,15.56,8.83,15.56L8.83,15.56z M8.83,15.56"/>
	<path d="M8.07,20.87c0,1.25,1.02,2.28,2.28,2.28c1.25,0,2.28-1.02,2.28-2.28c0-1.25-1.02-2.28-2.28-2.28
		C9.09,18.6,8.07,19.62,8.07,20.87L8.07,20.87z M8.07,20.87"/>
	<path d="M18.74,20.87c0,1.25,1.02,2.28,2.28,2.28c1.25,0,2.28-1.02,2.28-2.28c0-1.25-1.02-2.28-2.28-2.28
		C19.76,18.6,18.74,19.62,18.74,20.87L18.74,20.87z M18.74,20.87"/>
</g>
<g>
</g>
<g>
</g>
<g>
</g>
<g>
</g>
<g>
</g>
<g>
</g>
<g>
</g>
<g>
</g>
<g>
</g>
<g>
</g>
<g>
</g>
<g>
</g>
<g>
</g>
<g>
</g>
<g>
</g>
</svg>
