<?xml version="1.0" encoding="utf-8"?>
<!-- Generator: Adobe Illustrator 24.1.3, SVG Export Plug-In . SVG Version: 6.00 Build 0)  -->
<svg version="1.1" id="Layer_1" xmlns="http://www.w3.org/2000/svg" xmlns:xlink="http://www.w3.org/1999/xlink" x="0px" y="0px"
	 viewBox="0 0 23.08 15.77" enable-background="new 0 0 23.08 15.77" xml:space="preserve">
<path fill="#666666" d="M11.4,0.16c-5.07,0-9.41,3.16-11.16,7.61c1.76,4.46,6.09,7.61,11.16,7.61c5.08,0,9.41-3.16,11.16-7.61
	C20.8,3.32,16.48,0.16,11.4,0.16z M11.4,12.85c-2.8,0-5.07-2.27-5.07-5.07S8.59,2.7,11.4,2.7s5.07,2.27,5.07,5.07
	S14.2,12.85,11.4,12.85z M11.4,4.73c-1.68,0-3.04,1.37-3.04,3.04s1.37,3.04,3.04,3.04s3.04-1.37,3.04-3.04S13.08,4.73,11.4,4.73z"/>
<g>
</g>
<g>
</g>
<g>
</g>
<g>
</g>
<g>
</g>
<g>
</g>
<g>
</g>
<g>
</g>
<g>
</g>
<g>
</g>
<g>
</g>
<g>
</g>
<g>
</g>
<g>
</g>
<g>
</g>
</svg>
