<?xml version="1.0" encoding="utf-8"?>
<!-- Generator: Adobe Illustrator 24.1.3, SVG Export Plug-In . SVG Version: 6.00 Build 0)  -->
<svg version="1.1" id="Layer_1" xmlns="http://www.w3.org/2000/svg" xmlns:xlink="http://www.w3.org/1999/xlink" x="0px" y="0px"
	 viewBox="0 0 33.08 35.77" enable-background="new 0 0 33.08 35.77" xml:space="preserve">
<g>
	<path fill="#B99219" d="M6.43,33.71h3.31c0,0,0.69,0,0.69-0.69c0-0.69,0-18.27,0-18.27s-0.04-1.45-0.52-2.42s-0.81-1.29-1.21-1.77
		c-0.4-0.48-0.81-0.73-0.81-2.42s0-4.52,0-4.52s0.16-0.08,0.16-0.24c0-0.16,0-0.73,0-0.73s0-0.08-0.16-0.16v-0.4
		c0,0,0-0.24-0.24-0.24c-0.24,0-1.21,0-1.21,0H6.39c0,0-0.97,0-1.21,0c-0.24,0-0.24,0.24-0.24,0.24v0.4
		C4.78,2.56,4.78,2.65,4.78,2.65s0,0.56,0,0.73c0,0.16,0.16,0.24,0.16,0.24s0,2.82,0,4.52s-0.4,1.94-0.81,2.42
		c-0.4,0.48-0.73,0.81-1.21,1.77S2.4,14.75,2.4,14.75s0,17.59,0,18.27c0,0.69,0.69,0.69,0.69,0.69h3.31H6.43z"/>
	<g>
		<path fill="#B99219" d="M29.43,7.23H15.31c-0.53,0-0.97,0.44-0.97,0.97v24.54c0,0.53,0.44,0.97,0.97,0.97h14.12
			c0.53,0,0.97-0.44,0.97-0.97V8.2C30.4,7.67,29.96,7.23,29.43,7.23z"/>
		<g>
			<line fill="none" stroke="#FFFFFF" stroke-width="0.7261" stroke-miterlimit="10" x1="17.7" y1="15.59" x2="26.96" y2="15.59"/>
			<line fill="none" stroke="#FFFFFF" stroke-width="0.7261" stroke-miterlimit="10" x1="17.74" y1="20.47" x2="27" y2="20.47"/>
			<line fill="none" stroke="#FFFFFF" stroke-width="0.7261" stroke-miterlimit="10" x1="17.78" y1="25.35" x2="27.04" y2="25.35"/>
		</g>
	</g>
</g>
<g>
</g>
<g>
</g>
<g>
</g>
<g>
</g>
<g>
</g>
<g>
</g>
<g>
</g>
<g>
</g>
<g>
</g>
<g>
</g>
<g>
</g>
<g>
</g>
<g>
</g>
<g>
</g>
<g>
</g>
</svg>
