<?xml version="1.0" encoding="utf-8"?>
<!-- Generator: Adobe Illustrator 24.1.3, SVG Export Plug-In . SVG Version: 6.00 Build 0)  -->
<svg version="1.1" id="Layer_1" xmlns="http://www.w3.org/2000/svg" xmlns:xlink="http://www.w3.org/1999/xlink" x="0px" y="0px"
	 viewBox="0 0 33 23" enable-background="new 0 0 33 23" xml:space="preserve">
<path d="M31.55,22.44c-0.24,0-0.46-0.14-0.58-0.36c-0.04-0.07-2.99-5.54-15.3-5.73l0,5.44c0,0.25-0.14,0.47-0.36,0.58
	c-0.22,0.11-0.48,0.08-0.68-0.07L1.14,11.96c-0.16-0.12-0.25-0.31-0.25-0.51c0-0.2,0.09-0.39,0.25-0.51L14.64,0.6
	c0.19-0.15,0.46-0.17,0.68-0.07c0.22,0.11,0.36,0.33,0.36,0.58l0,5.74c0.33-0.02,0.75-0.04,1.25-0.04c4.59,0,15.27,1.46,15.27,14.98
	c0,0.3-0.2,0.56-0.5,0.63C31.65,22.43,31.6,22.44,31.55,22.44L31.55,22.44z M31.55,22.44"/>
</svg>
