<?xml version="1.0" encoding="utf-8"?>
<!-- Generator: Adobe Illustrator 24.1.3, SVG Export Plug-In . SVG Version: 6.00 Build 0)  -->
<svg version="1.1" id="Layer_1" xmlns="http://www.w3.org/2000/svg" xmlns:xlink="http://www.w3.org/1999/xlink" x="0px" y="0px"
	 viewBox="0 0 23.08 29.77" enable-background="new 0 0 23.08 29.77" xml:space="preserve">
<g>
	<path d="M15.14,11.04c-0.35,0-0.64,0.28-0.64,0.64v12.01c0,0.35,0.28,0.64,0.64,0.64c0.35,0,0.64-0.28,0.64-0.64V11.67
		C15.78,11.32,15.49,11.04,15.14,11.04L15.14,11.04z M15.14,11.04"/>
	<path d="M7.65,11.04c-0.35,0-0.64,0.28-0.64,0.64v12.01c0,0.35,0.28,0.64,0.64,0.64c0.35,0,0.64-0.28,0.64-0.64V11.67
		C8.28,11.32,8,11.04,7.65,11.04L7.65,11.04z M7.65,11.04"/>
	<path d="M2.18,9.29v15.65c0,0.93,0.34,1.79,0.93,2.42c0.59,0.63,1.41,0.98,2.27,0.98h12.02c0.86,0,1.68-0.36,2.27-0.98
		c0.59-0.62,0.93-1.49,0.93-2.42V9.29c1.18-0.31,1.94-1.45,1.78-2.66c-0.16-1.21-1.19-2.11-2.41-2.11h-3.25V3.72
		c0-0.67-0.26-1.31-0.73-1.78c-0.47-0.47-1.12-0.73-1.78-0.73H8.57C7.91,1.2,7.26,1.47,6.79,1.94C6.32,2.41,6.05,3.05,6.06,3.72
		v0.79H2.81c-1.22,0-2.25,0.9-2.41,2.11C0.24,7.84,1,8.97,2.18,9.29L2.18,9.29z M17.41,27.07H5.38c-1.09,0-1.93-0.93-1.93-2.13V9.34
		h15.88v15.6C19.34,26.14,18.49,27.07,17.41,27.07L17.41,27.07z M7.33,3.72c0-0.33,0.13-0.65,0.36-0.88
		C7.92,2.6,8.24,2.47,8.57,2.48h5.64c0.33-0.01,0.65,0.12,0.88,0.36c0.23,0.23,0.36,0.55,0.36,0.88v0.79H7.33V3.72z M2.81,5.78
		h17.18c0.63,0,1.14,0.51,1.14,1.14s-0.51,1.14-1.14,1.14H2.81c-0.63,0-1.14-0.51-1.14-1.14S2.17,5.78,2.81,5.78L2.81,5.78z
		 M2.81,5.78"/>
	<path d="M11.4,11.04c-0.35,0-0.64,0.28-0.64,0.64v12.01c0,0.35,0.28,0.64,0.64,0.64c0.35,0,0.64-0.28,0.64-0.64V11.67
		C12.03,11.32,11.75,11.04,11.4,11.04L11.4,11.04z M11.4,11.04"/>
</g>
<g>
</g>
<g>
</g>
<g>
</g>
<g>
</g>
<g>
</g>
<g>
</g>
<g>
</g>
<g>
</g>
<g>
</g>
<g>
</g>
<g>
</g>
<g>
</g>
<g>
</g>
<g>
</g>
<g>
</g>
</svg>
