<?xml version="1.0" encoding="utf-8"?>
<!-- Generator: Adobe Illustrator 24.1.3, SVG Export Plug-In . SVG Version: 6.00 Build 0)  -->
<svg version="1.1" id="Layer_1" xmlns="http://www.w3.org/2000/svg" xmlns:xlink="http://www.w3.org/1999/xlink" x="0px" y="0px"
	 viewBox="0 0 29 29" enable-background="new 0 0 29 29" xml:space="preserve">
<g>
	<path fill="none" stroke="#000000" stroke-width="0.8995" stroke-miterlimit="10" d="M14.63,0.92C7.1,0.92,1,7.02,1,14.54
		c0,7.52,6.1,13.62,13.62,13.62s13.62-6.1,13.62-13.62C28.25,7.02,22.15,0.92,14.63,0.92z"/>
	<path d="M20.12,10.34c-0.06-0.22-0.18-0.46-0.27-0.67c-1.07-2.58-3.41-3.5-5.3-3.5c-2.53,0-5.32,1.7-5.69,5.2v0.71
		c0,0.03,0.01,0.3,0.02,0.43c0.21,1.67,1.52,3.44,2.51,5.11c1.06,1.79,2.15,3.54,3.24,5.3c0.67-1.15,1.34-2.31,1.99-3.42
		c0.18-0.33,0.39-0.65,0.56-0.97c0.12-0.21,0.35-0.42,0.45-0.61c1.06-1.94,2.76-3.89,2.76-5.81v-0.79
		C20.39,11.11,20.14,10.38,20.12,10.34L20.12,10.34z M14.59,13.92c-0.74,0-1.56-0.37-1.96-1.4c-0.06-0.16-0.06-0.49-0.06-0.52v-0.46
		c0-1.31,1.11-1.91,2.08-1.91c1.19,0,2.11,0.95,2.11,2.14C16.77,12.97,15.78,13.92,14.59,13.92L14.59,13.92z M14.59,13.92"/>
</g>
</svg>
