<?xml version="1.0" encoding="utf-8"?>
<!-- Generator: Adobe Illustrator 24.1.3, SVG Export Plug-In . SVG Version: 6.00 Build 0)  -->
<svg version="1.1" id="Layer_1" xmlns="http://www.w3.org/2000/svg" xmlns:xlink="http://www.w3.org/1999/xlink" x="0px" y="0px"
	 viewBox="0 0 170.08 105.77" enable-background="new 0 0 170.08 105.77" xml:space="preserve">
<g>
	<path fill="#B99219" d="M133.39,25.75c-0.7-1.88-9.39-12.89-11.74-14.29c-2.34-1.4-3.51-0.47-5.15,0.94
		c-1.64,1.4-19.1,13.35-21.91,15.93c-2.81,2.58-6.32,8.8-8.67,13.01c-2.34,4.22-4.34,9.14-7.62,11.48
		c-3.28,2.34-11.01,8.43-12.65,9.37c-1.64,0.94-2.76,3.94-0.02,7.23c2.55,3.06,5.3,1.87,6.56,0.46c1.26-1.41,8.82-7.7,11.79-10.42
		c2.97-2.72,8.2-3.66,12.81-5.07c4.61-1.41,11.42-3.56,14.53-5.77c3.11-2.21,18.2-16.61,19.91-17.92
		C132.94,29.37,134.28,28.33,133.39,25.75"/>
	<path fill="#B99219" d="M120.62,58.66c0-3.29,2.67-5.96,5.96-5.96c3.29,0,5.96,2.67,5.96,5.96c0,3.29-2.67,5.96-5.96,5.96
		C123.29,64.62,120.62,61.95,120.62,58.66"/>
	<path fill="#B99219" d="M155.85,58.66c0-3.29,2.67-5.96,5.96-5.96c3.29,0,5.96,2.67,5.96,5.96c0,3.29-2.67,5.96-5.96,5.96
		C158.52,64.62,155.85,61.95,155.85,58.66"/>
	<path fill="#B99219" d="M3.03,58.66c0-3.29,2.67-5.96,5.96-5.96c3.29,0,5.96,2.67,5.96,5.96c0,3.29-2.67,5.96-5.96,5.96
		C5.69,64.62,3.03,61.95,3.03,58.66"/>
	<path fill="#B99219" d="M38.25,58.66c0-3.29,2.67-5.96,5.96-5.96c3.29,0,5.96,2.67,5.96,5.96c0,3.29-2.67,5.96-5.96,5.96
		C40.92,64.62,38.25,61.95,38.25,58.66"/>
	<polyline fill="#B99219" points="94.98,61.94 111.99,100.15 103.47,103.94 86.74,66.35 94.98,61.94 	"/>
	<path fill="#B99219" d="M60.49,7.39l8.52-3.79l14.48,32.53c-0.5,1.12-1.08,2.21-1.72,3.1c-1.36,1.9-3.28,3.79-4.8,5.17L60.49,7.39"
		/>
</g>
<g>
</g>
<g>
</g>
<g>
</g>
<g>
</g>
<g>
</g>
<g>
</g>
<g>
</g>
<g>
</g>
<g>
</g>
<g>
</g>
<g>
</g>
<g>
</g>
<g>
</g>
<g>
</g>
<g>
</g>
</svg>
