<?xml version="1.0" encoding="utf-8"?>
<!-- Generator: Adobe Illustrator 24.1.3, SVG Export Plug-In . SVG Version: 6.00 Build 0)  -->
<svg version="1.1" id="Layer_1" xmlns="http://www.w3.org/2000/svg" xmlns:xlink="http://www.w3.org/1999/xlink" x="0px" y="0px"
	 viewBox="0 0 35.08 35.77" enable-background="new 0 0 35.08 35.77" xml:space="preserve">
<path fill="#00CC00" d="M17.4,1.19c-9.16,0-16.58,7.42-16.58,16.58S8.24,34.35,17.4,34.35s16.58-7.42,16.58-16.58
	C33.96,8.62,26.55,1.2,17.4,1.19z M26.52,12.69L14.68,24.53c-0.46,0.46-1.21,0.46-1.67,0l-4.74-4.74c-0.47-0.45-0.48-1.2-0.03-1.67
	c0.45-0.47,1.2-0.48,1.67-0.03c0.01,0.01,0.02,0.02,0.03,0.03l3.9,3.9l11-11c0.47-0.45,1.22-0.44,1.67,0.03
	C26.96,11.5,26.96,12.23,26.52,12.69L26.52,12.69z"/>
<g>
</g>
<g>
</g>
<g>
</g>
<g>
</g>
<g>
</g>
<g>
</g>
<g>
</g>
<g>
</g>
<g>
</g>
<g>
</g>
<g>
</g>
<g>
</g>
<g>
</g>
<g>
</g>
<g>
</g>
</svg>
