<?xml version="1.0" encoding="utf-8"?>
<!-- Generator: Adobe Illustrator 24.1.3, SVG Export Plug-In . SVG Version: 6.00 Build 0)  -->
<svg version="1.1" id="Layer_1" xmlns="http://www.w3.org/2000/svg" xmlns:xlink="http://www.w3.org/1999/xlink" x="0px" y="0px"
	 viewBox="0 0 57 57" enable-background="new 0 0 57 57" xml:space="preserve">
<g>
	<path fill="#B99219" d="M28.64,56.61C13.37,56.82,0.71,44.02,0.71,28.75C0.7,13.47,13.35,0.83,28.62,0.82
		c15.27-0.01,27.93,12.63,27.93,27.91C56.55,44,43.92,56.8,28.64,56.61z M37.63,21.13c0.44-1.9,0.42-3.74,0.23-5.57
		c-0.12-1.14-0.53-2.21-1.2-3.18c-0.75-1.09-1.77-1.71-3.08-1.88c-0.39-0.05-0.8-0.07-1.16-0.2c-1.86-0.69-3.79-0.78-5.74-0.67
		c-3.4,0.18-6.76,2.92-7.38,6.53c-0.29,1.71,0.08,3.34,0.25,4.89c-0.31,0.36-0.74,0.63-0.77,0.94c-0.15,1.65-0.16,3.33,1.17,4.58
		c0.56,0.53,0.82,1.12,0.84,1.83c0.04,1.81,0.65,3.42,1.71,4.84c0.6,0.8,0.86,1.65,0.77,2.64c-0.04,0.49-0.03,1-0.03,1.49
		c0,1.44-0.67,2.48-1.94,3.1c-0.84,0.42-1.71,0.79-2.59,1.13c-2.28,0.86-4.58,1.68-6.63,3.03c-0.87,0.57-1.74,1.15-2.28,2.07
		c9.46,10.67,27.68,11.06,37.65,0.02c-0.1-0.15-0.2-0.32-0.33-0.46c-1.02-1.12-2.27-1.95-3.64-2.56c-1.86-0.84-3.76-1.55-5.64-2.34
		c-0.78-0.33-1.56-0.66-2.28-1.09c-1-0.59-1.59-1.48-1.57-2.7c0.01-0.7,0.01-1.4-0.03-2.09c-0.05-0.78,0.18-1.45,0.65-2.08
		c1.17-1.55,1.82-3.29,1.85-5.26c0.01-0.4,0.17-0.94,0.46-1.18c1.27-1.07,1.54-2.49,1.61-4.02C38.57,22.14,38.5,21.42,37.63,21.13z"
		/>
	<path fill="#FFFFFF" d="M37.63,21.13c0.86,0.28,0.93,1,0.89,1.79c-0.07,1.53-0.34,2.95-1.61,4.02c-0.29,0.24-0.46,0.78-0.46,1.18
		c-0.03,1.97-0.69,3.7-1.85,5.26c-0.47,0.63-0.7,1.29-0.65,2.08c0.04,0.7,0.04,1.39,0.03,2.09c-0.02,1.22,0.57,2.11,1.57,2.7
		c0.72,0.43,1.51,0.76,2.28,1.09c1.88,0.79,3.79,1.51,5.64,2.34c1.36,0.61,2.61,1.44,3.64,2.56c0.13,0.14,0.23,0.31,0.33,0.46
		C37.48,57.74,19.26,57.36,9.8,46.68c0.54-0.92,1.41-1.5,2.28-2.07c2.05-1.35,4.35-2.16,6.63-3.03c0.88-0.33,1.75-0.71,2.59-1.13
		c1.27-0.63,1.94-1.66,1.94-3.1c0-0.5-0.01-1,0.03-1.49c0.09-0.99-0.18-1.84-0.77-2.64c-1.06-1.43-1.67-3.04-1.71-4.84
		c-0.02-0.71-0.28-1.3-0.84-1.83c-1.34-1.25-1.32-2.93-1.17-4.58c0.03-0.31,0.46-0.58,0.77-0.94c-0.17-1.55-0.54-3.17-0.25-4.89
		c0.61-3.61,3.98-6.34,7.38-6.53c1.95-0.11,3.88-0.01,5.74,0.67c0.36,0.13,0.77,0.15,1.16,0.2c1.31,0.17,2.33,0.79,3.08,1.88
		c0.66,0.97,1.07,2.04,1.2,3.18C38.06,17.4,38.08,19.24,37.63,21.13z"/>
</g>
</svg>
