<?xml version="1.0" encoding="utf-8"?>
<!-- Generator: Adobe Illustrator 24.1.3, SVG Export Plug-In . SVG Version: 6.00 Build 0)  -->
<svg version="1.1" id="Layer_1" xmlns="http://www.w3.org/2000/svg" xmlns:xlink="http://www.w3.org/1999/xlink" x="0px" y="0px"
	 viewBox="0 0 86.08 21.77" enable-background="new 0 0 86.08 21.77" xml:space="preserve">
<g>
	<path fill="#2394BC" d="M15.92,4.08l-2.01,12.5h3.21l2.01-12.5H15.92z M25.6,9.17c-1.12-0.55-1.81-0.93-1.81-1.49
		c0.01-0.52,0.58-1.04,1.85-1.04c1.04-0.03,1.81,0.22,2.39,0.46l0.29,0.13l0.44-2.61c-0.63-0.25-1.64-0.52-2.88-0.52
		c-3.17,0-5.4,1.65-5.42,4.01c-0.03,1.74,1.6,2.71,2.81,3.28c1.24,0.59,1.67,0.98,1.67,1.51c-0.01,0.81-1,1.18-1.93,1.18
		c-1.28,0-1.97-0.19-3.01-0.64l-0.42-0.19l-0.45,2.72c0.75,0.33,2.14,0.63,3.58,0.65c3.37,0,5.56-1.62,5.59-4.14
		C28.31,11.09,27.45,10.03,25.6,9.17L25.6,9.17z M36.99,4.12h-2.48c-0.77,0-1.35,0.22-1.68,1.01l-4.77,11.46h3.37l0.93-2.48h3.77
		l0.48,2.49h2.97L36.99,4.12z M33.29,11.59c0.06,0.01,1.29-4.05,1.29-4.05l0.98,4.05H33.29z M11.23,4.08l-3.15,8.49L7.74,10.9
		C7.16,8.96,5.33,6.86,3.3,5.82l2.88,10.75h3.4l5.05-12.49L11.23,4.08L11.23,4.08z M11.23,4.08"/>
	<path fill="#EFC75E" d="M6.68,5.69c-0.25-0.95-1.03-1.6-2.09-1.61h-4.98l-0.05,0.23c3.89,0.96,7.15,3.91,8.21,6.68L6.68,5.69z
		 M6.68,5.69"/>
</g>
<g>
	<path fill="#FFB600" d="M85.98,10.85c0,5.77-4.66,10.49-10.49,10.49C69.72,21.34,65,16.62,65,10.85S69.66,0.36,75.43,0.36
		C81.32,0.36,85.98,5.08,85.98,10.85L85.98,10.85z M85.98,10.85"/>
	<path fill="#F7981D" d="M75.49,0.36c5.77,0,10.49,4.72,10.49,10.49s-4.66,10.49-10.49,10.49C69.72,21.34,65,16.62,65,10.85"/>
	<path fill="#FF8500" d="M75.49,0.36c5.77,0,10.49,4.72,10.49,10.49s-4.66,10.49-10.49,10.49"/>
	<path fill="#FF5050" d="M61.39,0.36c-5.72,0.06-10.38,4.72-10.38,10.49s4.66,10.49,10.49,10.49c2.72,0,5.16-1.05,7.05-2.72
		c0.39-0.33,0.72-0.72,1.05-1.11h-2.16c-0.28-0.33-0.56-0.72-0.78-1.05h3.72c0.22-0.33,0.44-0.72,0.61-1.11h-4.94
		c-0.17-0.33-0.33-0.72-0.44-1.11h5.77c0.33-1.05,0.56-2.16,0.56-3.33c0-0.78-0.11-1.5-0.22-2.22h-6.44
		c0.06-0.39,0.17-0.72,0.28-1.11h5.77c-0.11-0.39-0.28-0.78-0.44-1.11H66c0.17-0.39,0.39-0.72,0.61-1.11h3.72
		c-0.22-0.39-0.5-0.78-0.83-1.11h-2.05c0.33-0.39,0.67-0.72,1.05-1.05c-1.83-1.72-4.33-2.72-7.05-2.72
		C61.45,0.36,61.45,0.36,61.39,0.36L61.39,0.36z M61.39,0.36"/>
	<path fill="#E52836" d="M51.01,10.85c0,5.77,4.66,10.49,10.49,10.49c2.72,0,5.16-1.05,7.05-2.72c0.39-0.33,0.72-0.72,1.05-1.11
		h-2.16c-0.28-0.33-0.56-0.72-0.78-1.05h3.72c0.22-0.33,0.44-0.72,0.61-1.11h-4.94c-0.17-0.33-0.33-0.72-0.44-1.11h5.77
		c0.33-1.05,0.56-2.16,0.56-3.33c0-0.78-0.11-1.5-0.22-2.22h-6.44c0.06-0.39,0.17-0.72,0.28-1.11h5.77
		c-0.11-0.39-0.28-0.78-0.44-1.11H66c0.17-0.39,0.39-0.72,0.61-1.11h3.72c-0.22-0.39-0.5-0.78-0.83-1.11h-2.05
		c0.33-0.39,0.67-0.72,1.05-1.05c-1.83-1.72-4.33-2.72-7.05-2.72h-0.06"/>
	<path fill="#CB2026" d="M61.5,21.34c2.72,0,5.16-1.05,7.05-2.72c0.39-0.33,0.72-0.72,1.05-1.11h-2.16
		c-0.28-0.33-0.56-0.72-0.78-1.05h3.72c0.22-0.33,0.44-0.72,0.61-1.11h-4.94c-0.17-0.33-0.33-0.72-0.44-1.11h5.77
		c0.33-1.05,0.56-2.16,0.56-3.33c0-0.78-0.11-1.5-0.22-2.22h-6.44c0.06-0.39,0.17-0.72,0.28-1.11h5.77
		c-0.11-0.39-0.28-0.78-0.44-1.11H66c0.17-0.39,0.39-0.72,0.61-1.11h3.72c-0.22-0.39-0.5-0.78-0.83-1.11h-2.05
		c0.33-0.39,0.67-0.72,1.05-1.05c-1.83-1.72-4.33-2.72-7.05-2.72h-0.06"/>
	<path fill="#FFFFFF" d="M65.22,13.51l0.17-0.94c-0.06,0-0.17,0.06-0.28,0.06c-0.39,0-0.44-0.22-0.39-0.33l0.33-1.94h0.61l0.17-1.05
		h-0.56l0.11-0.67h-1.11c0,0-0.67,3.66-0.67,4.11c0,0.67,0.39,0.94,0.89,0.94C64.83,13.68,65.11,13.57,65.22,13.51L65.22,13.51z
		 M65.22,13.51"/>
	<path fill="#FFFFFF" d="M65.61,11.74c0,1.55,1.05,1.94,1.94,1.94c0.83,0,1.17-0.17,1.17-0.17l0.22-1.05c0,0-0.61,0.28-1.17,0.28
		c-1.22,0-1-0.89-1-0.89h2.28c0,0,0.17-0.72,0.17-1c0-0.72-0.39-1.61-1.61-1.61C66.44,9.13,65.61,10.35,65.61,11.74L65.61,11.74z
		 M67.55,10.13c0.61,0,0.5,0.72,0.5,0.78h-1.22C66.83,10.85,66.94,10.13,67.55,10.13L67.55,10.13z M67.55,10.13"/>
	<path fill="#FFFFFF" d="M74.6,13.51l0.22-1.22c0,0-0.56,0.28-0.94,0.28c-0.78,0-1.11-0.61-1.11-1.28c0-1.33,0.67-2.05,1.44-2.05
		c0.56,0,1,0.33,1,0.33l0.17-1.17c0,0-0.67-0.28-1.28-0.28c-1.28,0-2.55,1.11-2.55,3.22c0,1.39,0.67,2.33,2,2.33
		C73.99,13.68,74.6,13.51,74.6,13.51L74.6,13.51z M74.6,13.51"/>
	<path fill="#FFFFFF" d="M59.12,9.13c-0.78,0-1.33,0.22-1.33,0.22l-0.17,0.94c0,0,0.5-0.22,1.22-0.22c0.39,0,0.72,0.06,0.72,0.39
		c0,0.22-0.06,0.28-0.06,0.28s-0.33,0-0.5,0c-0.94,0-2,0.39-2,1.67c0,1,0.67,1.22,1.05,1.22c0.78,0,1.11-0.5,1.17-0.5l-0.06,0.44h1
		l0.44-3.05C60.62,9.18,59.51,9.13,59.12,9.13L59.12,9.13z M59.34,11.62c0,0.17-0.11,1.05-0.78,1.05c-0.33,0-0.44-0.28-0.44-0.44
		c0-0.28,0.17-0.67,1-0.67C59.28,11.62,59.34,11.62,59.34,11.62L59.34,11.62z M59.34,11.62"/>
	<path fill="#FFFFFF" d="M61.67,13.62c0.28,0,1.67,0.06,1.67-1.44c0-1.39-1.33-1.11-1.33-1.67c0-0.28,0.22-0.39,0.61-0.39
		c0.17,0,0.78,0.06,0.78,0.06l0.17-1c0,0-0.39-0.11-1.05-0.11c-0.83,0-1.67,0.33-1.67,1.44c0,1.28,1.39,1.17,1.39,1.67
		c0,0.33-0.39,0.39-0.67,0.39c-0.5,0-1-0.17-1-0.17l-0.17,1C60.45,13.51,60.73,13.62,61.67,13.62L61.67,13.62z M61.67,13.62"/>
	<path fill="#FFFFFF" d="M83.82,8.24l-0.22,1.5c0,0-0.44-0.56-1.05-0.56c-1,0-1.89,1.22-1.89,2.66c0,0.89,0.44,1.83,1.39,1.83
		c0.67,0,1.05-0.44,1.05-0.44l-0.06,0.39h1.11l0.83-5.33L83.82,8.24z M83.32,11.18c0,0.61-0.28,1.39-0.89,1.39
		c-0.39,0-0.61-0.33-0.61-0.89c0-0.89,0.39-1.44,0.89-1.44C83.09,10.24,83.32,10.51,83.32,11.18L83.32,11.18z M83.32,11.18"/>
	<path fill="#FFFFFF" d="M53.07,13.57l0.67-4l0.11,4h0.78l1.44-4l-0.61,4h1.17l0.89-5.33h-1.83l-1.11,3.27l-0.06-3.27H52.9
		l-0.89,5.33H53.07z M53.07,13.57"/>
	<path fill="#FFFFFF" d="M70.27,13.57c0.33-1.83,0.39-3.33,1.17-3.05c0.11-0.72,0.28-1,0.39-1.28c0,0-0.06,0-0.22,0
		c-0.5,0-0.89,0.67-0.89,0.67l0.11-0.61h-1.05l-0.72,4.33h1.22V13.57z M70.27,13.57"/>
	<path fill="#FFFFFF" d="M77.16,9.13c-0.78,0-1.33,0.22-1.33,0.22l-0.17,0.94c0,0,0.5-0.22,1.22-0.22c0.39,0,0.72,0.06,0.72,0.39
		c0,0.22-0.06,0.28-0.06,0.28s-0.33,0-0.5,0c-0.94,0-2,0.39-2,1.67c0,1,0.67,1.22,1.05,1.22c0.78,0,1.11-0.5,1.17-0.5l-0.06,0.44h1
		l0.44-3.05C78.71,9.18,77.54,9.13,77.16,9.13L77.16,9.13z M77.43,11.62c0,0.17-0.11,1.05-0.78,1.05c-0.33,0-0.44-0.28-0.44-0.44
		c0-0.28,0.17-0.67,1-0.67C77.38,11.62,77.38,11.62,77.43,11.62L77.43,11.62z M77.43,11.62"/>
	<path fill="#FFFFFF" d="M79.6,13.57c0.33-1.83,0.39-3.33,1.17-3.05c0.11-0.72,0.28-1,0.39-1.28c0,0-0.06,0-0.22,0
		c-0.5,0-0.89,0.67-0.89,0.67l0.11-0.61H79.1l-0.72,4.33h1.22V13.57z M79.6,13.57"/>
	<path fill="#DCE5E5" d="M63.5,12.73c0,0.67,0.39,0.94,0.89,0.94c0.39,0,0.72-0.11,0.83-0.17l0.17-0.94c-0.06,0-0.17,0.06-0.28,0.06
		c-0.39,0-0.44-0.22-0.39-0.33l0.33-1.94h0.61l0.17-1.05h-0.56l0.11-0.67"/>
	<path fill="#DCE5E5" d="M66.17,11.74c0,1.55,0.5,1.94,1.39,1.94c0.83,0,1.17-0.17,1.17-0.17l0.22-1.05c0,0-0.61,0.28-1.17,0.28
		c-1.22,0-1-0.89-1-0.89h2.28c0,0,0.17-0.72,0.17-1c0-0.72-0.39-1.61-1.61-1.61C66.44,9.13,66.17,10.35,66.17,11.74L66.17,11.74z
		 M67.55,10.13c0.61,0,0.72,0.72,0.72,0.78h-1.44C66.83,10.85,66.94,10.13,67.55,10.13L67.55,10.13z M67.55,10.13"/>
	<path fill="#DCE5E5" d="M74.6,13.51l0.22-1.22c0,0-0.56,0.28-0.94,0.28c-0.78,0-1.11-0.61-1.11-1.28c0-1.33,0.67-2.05,1.44-2.05
		c0.56,0,1,0.33,1,0.33l0.17-1.17c0,0-0.67-0.28-1.28-0.28c-1.28,0-2,1.11-2,3.22c0,1.39,0.11,2.33,1.44,2.33
		C73.99,13.68,74.6,13.51,74.6,13.51L74.6,13.51z M74.6,13.51"/>
	<path fill="#DCE5E5" d="M57.62,10.35c0,0,0.5-0.22,1.22-0.22c0.39,0,0.72,0.06,0.72,0.39c0,0.22-0.06,0.28-0.06,0.28s-0.33,0-0.5,0
		c-0.94,0-2,0.39-2,1.67c0,1,0.67,1.22,1.05,1.22c0.78,0,1.11-0.5,1.17-0.5l-0.06,0.44h1l0.44-3.05c0-1.28-1.11-1.33-1.55-1.33
		 M59.89,11.62c0,0.17-0.67,1.05-1.33,1.05c-0.33,0-0.44-0.28-0.44-0.44c0-0.28,0.17-0.67,1-0.67
		C59.28,11.62,59.89,11.62,59.89,11.62L59.89,11.62z M59.89,11.62"/>
	<path fill="#DCE5E5" d="M60.45,13.51c0,0,0.33,0.11,1.28,0.11c0.28,0,1.67,0.06,1.67-1.44c0-1.39-1.33-1.11-1.33-1.67
		c0-0.28,0.22-0.39,0.61-0.39c0.17,0,0.78,0.06,0.78,0.06l0.17-1c0,0-0.39-0.11-1.05-0.11c-0.83,0-1.11,0.33-1.11,1.44
		c0,1.28,0.83,1.17,0.83,1.67c0,0.33-0.39,0.39-0.67,0.39"/>
	<path fill="#DCE5E5" d="M83.59,9.74c0,0-0.44-0.56-1.05-0.56c-1,0-1.33,1.22-1.33,2.66c0,0.89-0.11,1.83,0.83,1.83
		c0.67,0,1.05-0.44,1.05-0.44l-0.06,0.39h1.11l0.83-5.33 M83.54,11.18c0,0.61-0.5,1.39-1.11,1.39c-0.39,0-0.61-0.33-0.61-0.89
		c0-0.89,0.39-1.44,0.89-1.44C83.09,10.24,83.54,10.51,83.54,11.18L83.54,11.18z M83.54,11.18"/>
	<path fill="#DCE5E5" d="M53.07,13.57l0.67-4l0.11,4h0.78l1.44-4l-0.61,4h1.17l0.89-5.33h-1.39l-1.55,3.27l-0.06-3.27H53.9
		l-1.89,5.33H53.07z M53.07,13.57"/>
	<path fill="#DCE5E5" d="M69.11,13.57h1.17c0.33-1.83,0.39-3.33,1.17-3.05c0.11-0.72,0.28-1,0.39-1.28c0,0-0.06,0-0.22,0
		c-0.5,0-0.89,0.67-0.89,0.67l0.11-0.61"/>
	<path fill="#DCE5E5" d="M75.66,10.35c0,0,0.5-0.22,1.22-0.22c0.39,0,0.72,0.06,0.72,0.39c0,0.22-0.06,0.28-0.06,0.28s-0.33,0-0.5,0
		c-0.94,0-2,0.39-2,1.67c0,1,0.67,1.22,1.05,1.22c0.78,0,1.11-0.5,1.17-0.5l-0.06,0.44h1l0.44-3.05c0-1.28-1.11-1.33-1.55-1.33
		 M77.93,11.62c0,0.17-0.67,1.05-1.33,1.05c-0.33,0-0.44-0.28-0.44-0.44c0-0.28,0.17-0.67,1-0.67
		C77.38,11.62,77.93,11.62,77.93,11.62L77.93,11.62z M77.93,11.62"/>
	<path fill="#DCE5E5" d="M78.43,13.57h1.17c0.33-1.83,0.39-3.33,1.17-3.05c0.11-0.72,0.28-1,0.39-1.28c0,0-0.06,0-0.22,0
		c-0.5,0-0.89,0.67-0.89,0.67l0.11-0.61"/>
</g>
<g>
</g>
<g>
</g>
<g>
</g>
<g>
</g>
<g>
</g>
<g>
</g>
<g>
</g>
<g>
</g>
<g>
</g>
<g>
</g>
<g>
</g>
<g>
</g>
<g>
</g>
<g>
</g>
<g>
</g>
</svg>
